Coordinates
version=1
nRows=32
nColumns=22
inDegrees=yes

Units are S.I. units (second, meters, Newtons, ...)
If the header above contains a line with 'inDegrees', this indicates whether rotational values are in degrees (yes) or radians (no).

endheader
time	pelvis_tilt	pelvis_list	pelvis_rotation	pelvis_tx	pelvis_ty	pelvis_tz	hip_flexion_r	hip_adduction_r	hip_rotation_r	knee_angle_r	ankle_angle_r	subtalar_angle_r	hip_flexion_l	hip_adduction_l	hip_rotation_l	knee_angle_l	ankle_angle_l	subtalar_angle_l	lumbar_extension	lumbar_bending	lumbar_rotation
      1.20000000	     -9.56367718	      1.93799264	    -33.60756851	     -1.41216638	      0.88120861	     -0.49561325	     11.68204698	     -0.56738755	      1.66648999	    -11.18861351	     13.76578940	      2.88404599	     11.22168310	     -8.05998613	     -3.38940844	    -17.24723116	     19.48895490	      3.72924576	      1.43030542	      2.50680508	     12.52845182
      1.21000000	     -9.65500698	      1.98645634	    -33.62261792	     -1.41112621	      0.88096159	     -0.49532970	     11.72829887	     -0.58368837	      1.67741889	    -11.20732319	     13.85004753	      3.01115665	     11.27019574	     -8.03967256	     -3.38598130	    -17.28512686	     19.61318502	      3.48073990	      1.44811515	      2.49798779	     12.53102968
      1.22000000	     -9.72275166	      2.02317389	    -33.63325767	     -1.40998694	      0.88076810	     -0.49500670	     11.70921183	     -0.60372342	      1.69949304	    -11.16746189	     13.90878845	      3.02623034	     11.26471577	     -8.01218936	     -3.36608710	    -17.28508297	     19.71588283	      3.45418637	      1.44032681	      2.48235433	     12.52175874
      1.23000000	     -9.79758865	      2.05965792	    -33.64312163	     -1.40883463	      0.88054277	     -0.49472780	     11.72384865	     -0.62403563	      1.71601324	    -11.18406321	     13.99879957	      3.10728048	     11.28967147	     -7.98672772	     -3.35772046	    -17.33238414	     19.85961997	      3.29278218	      1.42658114	      2.47407996	     12.51228769
      1.24000000	     -9.88160145	      2.10664505	    -33.65216600	     -1.40759168	      0.88030948	     -0.49442181	     11.72199270	     -0.65015950	      1.73751581	    -11.15238844	     14.07421290	      3.17438079	     11.30538547	     -7.95163903	     -3.33764431	    -17.34563030	     19.98558174	      3.16475584	      1.43314123	      2.46075621	     12.51306853
      1.25000000	     -9.98065468	      2.15480496	    -33.66274946	     -1.40631944	      0.88005175	     -0.49411972	     11.74865662	     -0.67152040	      1.72399280	    -11.15060391	     14.15643754	      3.31924573	     11.34198120	     -7.92350635	     -3.33190005	    -17.37614996	     20.09993660	      2.89017728	      1.44791727	      2.45473593	     12.53958667
      1.26000000	    -10.06221661	      2.19583800	    -33.67256621	     -1.40495103	      0.87982576	     -0.49378651	     11.72107832	     -0.69653794	      1.74050375	    -11.09708676	     14.22318229	      3.33581088	     11.33634005	     -7.88771848	     -3.31133571	    -17.37864798	     20.21796241	      2.86425394	      1.44358671	      2.44373927	     12.55258864
      1.27000000	    -10.15032779	      2.23161832	    -33.68106616	     -1.40359427	      0.87956530	     -0.49350079	     11.72609417	     -0.71622401	      1.77270672	    -11.10170077	     14.32103651	      3.42556387	     11.36019393	     -7.86135634	     -3.30950940	    -17.42912633	     20.40459890	      2.71105876	      1.42204326	      2.44263906	     12.54862825
      1.28000000	    -10.24979348	      2.27997745	    -33.68968136	     -1.40212397	      0.87928848	     -0.49318633	     11.71300002	     -0.74446885	      1.79452892	    -11.04985876	     14.40647750	      3.49918559	     11.37801686	     -7.82462736	     -3.28497559	    -17.44937661	     20.56264172	      2.59627966	      1.42650849	      2.43565785	     12.57338275
      1.29000000	    -10.36964691	      2.32572818	    -33.70579936	     -1.40062096	      0.87897309	     -0.49287572	     11.73483027	     -0.76140611	      1.78912237	    -11.03369848	     14.49318435	      3.69853169	     11.42768470	     -7.80329951	     -3.27210813	    -17.50904752	     20.71836910	      2.29995085	      1.44169468	      2.44372554	     12.61823748
      1.30000000	    -10.47603782	      2.37131864	    -33.71919179	     -1.39902154	      0.87866662	     -0.49255074	     11.71683433	     -0.78923282	      1.80699288	    -10.97755775	     14.58080661	      3.83084916	     11.44480001	     -7.77122224	     -3.24987487	    -17.53910393	     20.88775726	      2.13428056	      1.44143916	      2.44401088	     12.64273520
      1.31000000	    -10.58015408	      2.41606235	    -33.73757089	     -1.39735656	      0.87835085	     -0.49220936	     11.68399344	     -0.81813360	      1.84121954	    -10.90511761	     14.67088976	      3.88134098	     11.45372597	     -7.73827219	     -3.22525456	    -17.56956396	     21.06851398	      2.07743688	      1.43522694	      2.44308114	     12.66828344
      1.32000000	    -10.71455215	      2.45264460	    -33.76593185	     -1.39564539	      0.87798310	     -0.49186488	     11.68061546	     -0.82521580	      1.85360739	    -10.85035119	     14.75720002	      4.07306598	     11.50084796	     -7.73316984	     -3.22320098	    -17.64311401	     21.26803377	      1.85107830	      1.44810862	      2.47081967	     12.74190219
      1.33000000	    -10.82728523	      2.50687421	    -33.78738637	     -1.39379129	      0.87762710	     -0.49150583	     11.63711723	     -0.86571935	      1.88569336	    -10.75559389	     14.85383269	      4.13854961	     11.50323258	     -7.68920809	     -3.19066216	    -17.66276319	     21.45476645	      1.78152785	      1.45888282	      2.47167563	     12.78246991
      1.34000000	    -10.96775196	      2.54487822	    -33.82922734	     -1.39193107	      0.87723234	     -0.49114414	     11.62668755	     -0.87666006	      1.89811385	    -10.69061093	     14.93838049	      4.39592105	     11.54624353	     -7.68167741	     -3.19282840	    -17.74360342	     21.66343880	      1.49128977	      1.47383932	      2.50541194	     12.88340318
      1.35000000	    -11.09194955	      2.59676643	    -33.86473342	     -1.38993670	      0.87684050	     -0.49077820	     11.59119838	     -0.91651424	      1.91260286	    -10.60675789	     15.03506284	      4.60191239	     11.55958864	     -7.64216552	     -3.16950939	    -17.79372432	     21.86573298	      1.27188278	      1.48805601	      2.51951633	     12.95908788
      1.36000000	    -11.21479088	      2.64932172	    -33.90144170	     -1.38786051	      0.87644000	     -0.49039732	     11.53958182	     -0.95851516	      1.93944990	    -10.50432914	     15.13447874	      4.68046522	     11.55999110	     -7.59849802	     -3.14282122	    -17.82974114	     22.07353912	      1.19450049	      1.49791812	      2.53222073	     13.02090466
      1.37000000	    -11.35681898	      2.68150898	    -33.95398644	     -1.38572859	      0.87600963	     -0.49001385	     11.50943740	     -0.97427848	      1.95099289	    -10.43721646	     15.22053633	      4.96960866	     11.58664409	     -7.58639763	     -3.14985660	    -17.92256551	     22.29864907	      0.89993476	      1.50795321	      2.58162962	     13.13624220
      1.38000000	    -11.48577853	      2.73780270	    -33.99103904	     -1.38344290	      0.87556660	     -0.48963828	     11.45872655	     -1.02907262	      1.95391031	    -10.34605943	     15.32587412	      5.23614879	     11.58275094	     -7.53057693	     -3.11813604	    -17.95962416	     22.50955245	      0.64359719	      1.52554853	      2.60208177	     13.20915483
      1.39000000	    -11.60754587	      2.78621755	    -34.03090579	     -1.38107385	      0.87511327	     -0.48924233	     11.39131682	     -1.08007225	      1.97776879	    -10.25654739	     15.43625168	      5.30668082	     11.56850150	     -7.47757986	     -3.09005459	    -18.01157327	     22.75184327	      0.57676141	      1.52901698	      2.62482547	     13.27677513
      1.40000000	    -11.74579882	      2.82810508	    -34.08016500	     -1.37859717	      0.87462853	     -0.48882557	     11.33681288	     -1.12079593	      1.98659783	    -10.18183495	     15.53744047	      5.65810609	     11.55831691	     -7.43663989	     -3.08086659	    -18.07003986	     22.99336362	      0.20857399	      1.54602653	      2.66813076	     13.37144115
      1.41000000	    -11.86419854	      2.87752275	    -34.11805848	     -1.37601307	      0.87413119	     -0.48842017	     11.26231254	     -1.18295930	      2.01483511	    -10.10995650	     15.66398413	      5.72819088	     11.52912895	     -7.37057492	     -3.04903331	    -18.12542115	     23.26779437	      0.13029349	      1.54526143	      2.69142029	     13.43371540
      1.42000000	    -11.99111394	      2.90930313	    -34.17210634	     -1.37333628	      0.87361073	     -0.48799327	     11.19484985	     -1.22769443	      2.03282762	    -10.06559956	     15.79725528	      6.00761833	     11.49806712	     -7.32525776	     -3.05356984	    -18.20351967	     23.55503549	     -0.22197590	      1.53809727	      2.73853987	     13.54826250
      1.43000000	    -12.11275432	      2.97153503	    -34.21434382	     -1.37050473	      0.87304970	     -0.48756060	     11.12689417	     -1.30979729	      2.05558704	    -10.01391732	     15.94554195	      6.23434943	     11.45155695	     -7.23692405	     -3.01746046	    -18.23878011	     23.83670302	     -0.52570025	      1.55356884	      2.75517411	     13.62435654
      1.44000000	    -12.24374621	      3.03802535	    -34.25162279	     -1.36755608	      0.87244908	     -0.48713684	     11.06716698	     -1.39552891	      2.10591341	     -9.97053829	     16.09199436	      6.44458328	     11.40048226	     -7.14326769	     -2.97787265	    -18.25217687	     24.12194912	     -0.82073891	      1.57882521	      2.77896107	     13.69240730
      1.45000000	    -12.36303941	      3.09320181	    -34.29137648	     -1.36451801	      0.87182150	     -0.48670419	     11.01490111	     -1.48041551	      2.14009273	     -9.98668478	     16.28411933	      6.58543964	     11.34245266	     -7.05327509	     -2.95767980	    -18.29770942	     24.43714835	     -1.02595976	      1.58038179	      2.80259162	     13.78298398
      1.46000000	    -12.49134728	      3.17845800	    -34.32525657	     -1.36135028	      0.87113511	     -0.48627463	     10.99460426	     -1.59366296	      2.20450250	    -10.02842949	     16.47668340	      6.81822471	     11.27731839	     -6.92910736	     -2.90105966	    -18.28833720	     24.73586187	     -1.35873703	      1.61299190	      2.80736606	     13.84670247
      1.47000000	    -12.61050207	      3.26318854	    -34.35719122	     -1.35807990	      0.87041142	     -0.48584782	     10.99719052	     -1.71566375	      2.25576460	    -10.14034037	     16.70994811	      7.00191762	     11.20216387	     -6.79650969	     -2.84839743	    -18.28755086	     25.04646415	     -1.61296852	      1.63159630	      2.80643287	     13.91598338
      1.48000000	    -12.71056233	      3.33134470	    -34.37929165	     -1.35470070	      0.86966812	     -0.48541161	     11.00588921	     -1.83644289	      2.29005012	    -10.33042924	     16.99003865	      7.08653534	     11.10529351	     -6.66764187	     -2.81135025	    -18.30529099	     25.38415334	     -1.72778359	      1.61715602	      2.80559307	     13.97441373
      1.49000000	    -12.82234604	      3.47135333	    -34.41144010	     -1.35123663	      0.86881995	     -0.48500345	     11.13414002	     -2.01826439	      2.35799337	    -10.64402830	     17.29793195	      7.36344616	     11.02707764	     -6.46665130	     -2.72564769	    -18.27375976	     25.67917112	     -2.08455116	      1.65695346	      2.75029737	     14.04305880
      1.50000000	    -12.90471032	      3.59245520	    -34.43455049	     -1.34765907	      0.86795665	     -0.48458785	     11.27987997	     -2.20171124	      2.40123157	    -11.07503172	     17.65991664	      7.55026599	     10.91536729	     -6.26575007	     -2.66085850	    -18.26262761	     26.00156236	     -2.31353215	      1.65083516	      2.69316061	     14.08374442
      1.51000000	    -12.97074406	      3.72723834	    -34.45863103	     -1.34399889	      0.86704430	     -0.48418318	     11.49320554	     -2.40677989	      2.44640136	    -11.64903074	     18.05798290	      7.71807951	     10.79276418	     -6.03843744	     -2.58943350	    -18.25844957	     26.31196437	     -2.51483771	      1.62844001	      2.61445665	     14.11907012
